<?xml version="1.0" encoding="utf-8"?>
<!-- Generator: Adobe Illustrator 24.1.2, SVG Export Plug-In . SVG Version: 6.00 Build 0)  -->
<svg version="1.1" id="Layer_1" xmlns="http://www.w3.org/2000/svg" xmlns:xlink="http://www.w3.org/1999/xlink" x="0px" y="0px"
	 viewBox="0 0 100 100" style="enable-background:new 0 0 100 100;" xml:space="preserve">
<style type="text/css">
	.st0{fill:#F68521;}
	.st1{fill:#632069;}
</style>
<g>
	<path class="st0" d="M-85.1-49.2c4.3,0,8.5-0.1,12.8,0c7,0.2,12.6,3.1,16.4,9c3.4,5.3,6.5,10.7,9.7,16c2.1,3.4,2.5,7.2,2.4,11.1
		c0,1.9-0.8,2.2-2.4,2.2c-2.3-0.1-4.5,0-6.8,0c-2,0-3.4,1-3.5,3c-0.1,2.3,1.4,3.3,3.6,3.4c0.1,0,0.3,0,0.4,0c2.8,0.2,6.4-1.2,8,0.6
		c1.9,2.1,0.5,5.8,0.6,8.8c0.1,1.7,0.1,3.5,0,5.2c-0.2,4.9-2.9,8.7-7.4,10.3c-4.6,1.6-9.5,0.4-12.5-3.5c-1.2-1.5-2.2-1.6-4.1-1.6
		c-12,0.2-23.9,0.1-35.9-0.2c-1.6,0-2,0.5-2.8,1.4c-3.6,4.4-8.3,5.7-13.1,3.9c-4.7-1.7-7.2-5.6-7.2-11.2c0-3.7,0.1-7.5,0-11.2
		c-0.1-1.9,0.6-2.6,2.5-2.5c2.3,0.1,4.5,0.1,6.8,0c2,0,3.4-1.1,3.4-3.1s-1.3-3.1-3.3-3.2c-2.3-0.1-4.5-0.2-6.8,0
		c-2.2,0.2-2.8-0.7-2.6-2.8c0.1-1.5-0.3-3.1,0.2-4.4c3.9-10.4,9-20.1,17.3-27.7c2.9-2.6,6.8-3.5,10.8-3.5
		C-94.2-49.2-89.6-49.2-85.1-49.2z M-83.7-20.4c8.2-0.1,17.5-1.6,26.7-3.9c2.3-0.6,2.5-1.4,1.3-3.2c-1.9-3-3.7-6.2-5.6-9.2
		c-2.7-4.1-6.6-6.1-11.4-6.1c-5.7,0-11.5,0.6-17.1-0.1c-11.9-1.5-19.8,3-24.3,13.9c-0.1,0.2-0.3,0.5-0.4,0.7c-1.6,2-1.2,3.1,1.3,3.7
		C-104-22.1-94.6-20.4-83.7-20.4z M-85.4-4.5c-4,0-8,0-11.9,0c-2.1,0-3.8,0.7-3.9,3c-0.1,2.5,1.6,3.4,3.9,3.4c8,0,15.9,0,23.9,0
		c2.1,0,3.8-0.7,3.9-3c0.1-2.5-1.6-3.4-3.9-3.4C-77.4-4.5-81.4-4.5-85.4-4.5z"/>
	<path class="st0" d="M-43.9-58.6c0,1.9,0,3.7,0,5.6c0,2.2-0.9,3.7-3.2,3.8c-2,0-3.3-1.3-3.1-3.3c0.2-2.6-0.9-3-3.2-3
		c-21.3,0.1-42.6,0.1-63.9,0c-2.1,0-3.6,0-3.3,2.8c0.2,2.2-1.1,3.6-3.4,3.5c-2-0.1-2.9-1.6-2.9-3.6c0-4,0-8,0-12
		c0-2,1.1-3.4,3.1-3.4s3.3,1.3,3.1,3.3c-0.2,2.6,0.9,3,3.2,3c21.3-0.1,42.6-0.1,63.9,0c2.1,0,3.6,0,3.3-2.8
		c-0.2-2.2,1.1-3.6,3.4-3.5c2,0.1,2.9,1.6,2.9,3.6C-43.9-62.6-43.9-60.6-43.9-58.6z"/>
</g>
<rect x="-78" y="6" class="st0" width="67" height="33"/>
<g>
	<path class="st0" d="M-30.3,137.2c-22.4,0-44.9,0-67.3,0c-2.7-1.7-3.4-4.2-3.4-7.3c0.1-23.3,0.1-46.6,0-69.9c0-3.1,0.7-5.6,3.4-7.3
		c5.9,0,11.9,0,17.8,0c2.3,1.8,3.1,4.2,3.4,7c1.1,9.5,2.4,18.9,3.7,28.4c0.5,3.8,2.4,4.6,5.5,2.3c10.3-7.5,20.6-15,30.8-22.6
		c0.8-0.6,1.6-1.5,2.4-1.6c1-0.1,2.6,0.1,3.1,0.8c0.5,0.7,0.3,2.3-0.1,3.2c-0.4,0.8-1.4,1.3-2.2,1.9C-43.1,79.5-53,86.7-63,94
		c-0.9,0.7-1.9,1.4-2.6,1.9c0.7,2.8,1.4,5.2,2,7.7c4.6-1.8,9.2-3.6,13.8-5.4c11.1-4.3,22.5,3.3,22.6,15.2c0.1,5.5-0.1,11,0.1,16.5
		C-26.9,133-27.6,135.5-30.3,137.2z M-69.3,102.9c0-4.4-3.7-7.9-8-7.8c-4.2,0.1-7.7,3.6-7.8,7.8c-0.1,4.3,3.5,8,7.9,8
		C-72.9,110.8-69.3,107.2-69.3,102.9z M-37.6,116.1c0-2.8-2.3-5.2-5.2-5.3c-2.8-0.1-5.3,2.3-5.4,5.1c-0.1,2.9,2.4,5.5,5.3,5.4
		C-40,121.3-37.6,119-37.6,116.1z"/>
</g>
<g>
	<path class="st1" d="M29,93.2c-2.8-1.4-5.2-3.1-5.9-6.4c-1.1-4.8,2.5-9.7,7.7-9.7c12.8-0.1,25.6-0.1,38.3,0c3.7,0,6.7,2.6,7.6,6.1
		c0.9,3.4-0.6,6.9-3.8,8.9c-0.7,0.4-1.4,0.8-2,1.1C57,93.2,43,93.2,29,93.2z"/>
	<path class="st1" d="M39,28.5c0-1.9,0-3.5,0-5c-5.3-1-5.3-1-5.3-6.5c0-2.2,0-4.5,0-6.7s1-3.4,3.2-3.4c8.7,0,17.3,0,26,0
		c2.3,0,3.2,1.3,3.2,3.4c0,2.5,0,4.9,0,7.4c0,4.9-0.1,5.1-5.2,5.5c-0.1,0.8-0.2,1.7-0.2,2.6c0,0.8,0,1.5,0,2.2
		c0.5,0.2,0.6,0.4,0.8,0.4C71.7,28,72,32.1,72.8,39.2c0.9,7.9,2,15.8,2.9,23.8c0.6,5.3-2.2,8.6-7.7,8.7c-12.2,0-24.3,0-36.5,0
		c-5.4,0-8.3-3.3-7.6-8.7c1.1-8.8,2.1-17.6,3.3-26.4c0.9-6.4,2.8-8,9.3-8.1C37.3,28.5,38,28.5,39,28.5z M49.9,50
		c2.6,0,5.2,0.3,7.7-0.1c1.1-0.2,2.1-1.8,3.1-2.7c-1-0.8-2-2.4-3-2.4c-5.1-0.3-10.3-0.3-15.4,0c-1.1,0.1-2,1.8-3.1,2.7
		c1,0.8,1.9,2.3,3,2.4C44.8,50.3,47.4,50,49.9,50z M50,60.8c2.6,0,5.2,0.2,7.7-0.1c1.1-0.2,2-1.6,3-2.4c-1-0.9-2-2.6-3.1-2.7
		c-5.1-0.3-10.3-0.3-15.4,0c-1,0.1-2,1.6-3,2.4c1,0.9,1.9,2.5,3.1,2.7C44.8,61.1,47.4,60.8,50,60.8z M44.7,28.3c3.6,0,7,0,10.4,0
		c0-1.8,0-3.4,0-5c-3.6,0-7,0-10.4,0C44.7,25.1,44.7,26.6,44.7,28.3z"/>
</g>
<rect x="-10" y="-130.2" class="st1" width="120" height="87"/>
</svg>
